<?xml version="1.0" encoding="UTF-8"?>
<svg width="100px" height="101px" viewBox="0 0 100 101" version="1.1" xmlns="http://www.w3.org/2000/svg" xmlns:xlink="http://www.w3.org/1999/xlink">
    <title>sunWithRays</title>
    <g id="Page-1" stroke="none" stroke-width="1" fill="none" fill-rule="evenodd">
        <g id="sunWithRays" transform="translate(0.000000, 0.200000)" fill="#FFFFFF" fill-rule="nonzero">
            <path d="M50,67.9365079 C59.8809524,67.9365079 67.9365079,59.8809524 67.9365079,50 C67.9365079,40.1190476 59.8809524,32.0634921 50,32.0634921 C40.1190476,32.0634921 32.0634921,40.1190476 32.0634921,50 C32.0634921,59.8809524 40.1190476,67.9365079 50,67.9365079 Z M50,60 C44.484127,60 40,55.515873 40,50 C40,44.484127 44.484127,40 50,40 C55.515873,40 60,44.484127 60,50 C60,55.515873 55.515873,60 50,60 Z M17.3015873,88.0952381 L34.4444444,70.952381 L29.047619,65.5555556 L11.9047619,82.6984127 L17.3015873,88.0952381 Z M82.6984127,88.0952381 L88.0952381,82.6984127 L70.952381,65.5555556 L65.5555556,70.952381 L82.6984127,88.0952381 Z M29.047619,34.4444444 L34.4444444,29.047619 L17.3015873,11.9047619 L11.9047619,17.3015873 L29.047619,34.4444444 Z M70.952381,34.4444444 L88.0952381,17.3015873 L82.6984127,11.9047619 L65.5555556,29.047619 L70.952381,34.4444444 Z M46.1904762,100 L53.8095238,100 L53.8095238,75.8730159 L46.1904762,75.8730159 L46.1904762,100 Z M0,53.8095238 L24.1269841,53.8095238 L24.1269841,46.1904762 L0,46.1904762 L0,53.8095238 Z M75.8730159,53.8095238 L100,53.8095238 L100,46.1904762 L75.8730159,46.1904762 L75.8730159,53.8095238 Z M46.1904762,24.1269841 L53.8095238,24.1269841 L53.8095238,-5.63922806e-15 L46.1904762,-5.63922806e-15 L46.1904762,24.1269841 Z" id="Shape"></path>
        </g>
    </g>
</svg>